<?xml version="1.0" encoding="utf-8"?>
<!-- Generator: Adobe Illustrator 22.1.0, SVG Export Plug-In . SVG Version: 6.00 Build 0)  -->
<svg version="1.1" id="Layer_1" xmlns="http://www.w3.org/2000/svg" xmlns:xlink="http://www.w3.org/1999/xlink" x="0px" y="0px"
	 viewBox="0 0 70 70" style="enable-background:new 0 0 70 70;" xml:space="preserve">
<style type="text/css">
	.st0{fill:#FFFFFF;}
</style>
<g id="surface1">
	<path class="st0" d="M34.8,9.6C20.9,9.6,9.6,20.9,9.6,34.8S20.9,60,34.8,60S60,48.7,60,34.8S48.7,9.6,34.8,9.6z M33.8,51.6
		c-1.7,0-3.1-1.4-3.1-3.1s1.4-3.2,3.1-3.2s3.2,1.4,3.2,3.2S35.5,51.6,33.8,51.6z M36.9,38.8v3.4c0,0.6-0.5,1.1-1.1,1.1h-4.2
		c-0.6,0-1-0.5-1-1.1v-5.2c0-2.3,1.9-4.2,4.2-4.2s4.2-1.9,4.2-4.2c0-2.3-1.9-4.2-4.2-4.2s-4.2,1.9-4.2,4.2v1c0,0.6-0.5,1.1-1.1,1.1
		h-4.2c-0.6,0-1-0.5-1-1.1v-1C24.3,22.7,29,18,34.8,18s10.5,4.7,10.5,10.5C45.3,33.5,41.8,37.8,36.9,38.8z"/>
</g>
</svg>
